Coordinates
version=1
nRows=26
nColumns=22
inDegrees=yes

Units are S.I. units (second, meters, Newtons, ...)
If the header above contains a line with 'inDegrees', this indicates whether rotational values are in degrees (yes) or radians (no).

endheader
time	pelvis_tilt	pelvis_list	pelvis_rotation	pelvis_tx	pelvis_ty	pelvis_tz	hip_flexion_r	hip_adduction_r	hip_rotation_r	knee_angle_r	ankle_angle_r	subtalar_angle_r	hip_flexion_l	hip_adduction_l	hip_rotation_l	knee_angle_l	ankle_angle_l	subtalar_angle_l	lumbar_extension	lumbar_bending	lumbar_rotation
      3.35000000	     -2.22788774	     -1.72540034	      0.03627806	     -0.93094937	      0.90458148	     -0.05550955	     -6.96653509	      2.88925904	     -6.49680931	    -22.34410144	     22.91791903	      1.64248314	     30.68874218	     -1.81853794	     -8.87409738	    -18.52877097	      6.39205994	     -0.86266343	    -11.97431766	     -6.65929283	     11.57148375
      3.36000000	     -2.05220779	     -2.36771777	     -0.22961077	     -0.94023617	      0.90430275	     -0.05388434	     -6.96115398	      3.67805749	     -6.38856915	    -21.58027661	     23.39288520	      1.08324161	     30.93975876	     -2.65391421	     -8.91484781	    -18.42919831	      6.70926340	     -0.96505696	    -12.39752819	     -5.97745626	     11.62667679
      3.37000000	     -1.90168227	     -2.99259378	     -0.48639467	     -0.94923114	      0.90399179	     -0.05231209	     -6.97153100	      4.44495675	     -6.30800358	    -20.78122663	     23.76747275	      0.67033035	     31.20556643	     -3.47893909	     -8.94420759	    -18.40634842	      7.01943344	     -0.98672551	    -12.74516981	     -5.32541320	     11.67571498
      3.38000000	     -1.82539709	     -3.61082790	     -0.74500836	     -0.95805020	      0.90358995	     -0.05078000	     -6.88348072	      5.20555612	     -6.23342030	    -20.05283894	     24.12678440	     -0.02332042	     31.56584251	     -4.31398554	     -8.96932443	    -18.51194878	      7.20305554	     -0.96685781	    -12.97929035	     -4.68549029	     11.67093668
      3.39000000	     -1.76770756	     -4.22240702	     -1.01000116	     -0.96658039	      0.90327109	     -0.04928878	     -6.78953365	      5.95729088	     -6.16980062	    -19.33954281	     24.37935876	     -0.60305639	     31.93680494	     -5.15782008	     -8.97738151	    -18.75381582	      7.38026632	     -0.90159064	    -13.15614907	     -4.06628726	     11.68341547
      3.40000000	     -1.71131907	     -4.83279820	     -1.28579144	     -0.97480480	      0.90313104	     -0.04785762	     -6.70048634	      6.70172440	     -6.09464192	    -18.65810131	     24.48935772	     -1.04339479	     32.29050406	     -6.01410338	     -8.95419417	    -19.14402521	      7.56719795	     -0.83425434	    -13.29917915	     -3.45697141	     11.71677927
      3.41000000	     -1.70976976	     -5.45576420	     -1.56797398	     -0.98283645	      0.90312021	     -0.04647033	     -6.48815033	      7.45367981	     -6.00526515	    -18.12735877	     24.51135861	     -1.64084566	     32.71540431	     -6.89992912	     -8.90961075	    -19.74065416	      7.66398662	     -0.72684264	    -13.37104645	     -2.84316821	     11.72693782
      3.42000000	     -1.70098983	     -6.06246207	     -1.84531468	     -0.99054029	      0.90341472	     -0.04518555	     -6.27391248	      8.17798733	     -5.87124391	    -17.65102358	     24.42224361	     -2.11661391	     33.10860875	     -7.77473197	     -8.84954664	    -20.51751042	      7.76018887	     -0.61938399	    -13.43067221	     -2.25259625	     11.71527466
      3.43000000	     -1.65717133	     -6.66344162	     -2.11686589	     -0.99794939	      0.90410253	     -0.04401141	     -6.06426876	      8.87761087	     -5.70420590	    -17.26383309	     24.13117388	     -2.39795659	     33.42542023	     -8.64092342	     -8.74139344	    -21.45473897	      7.88502106	     -0.54769989	    -13.52247925	     -1.67881695	     11.73632518
      3.44000000	     -1.64134149	     -7.21410008	     -2.35543290	     -1.00503524	      0.90505769	     -0.04299543	     -5.80754350	      9.51359291	     -5.52504478	    -16.92985989	     23.75325230	     -2.62982212	     33.75432925	     -9.44655005	     -8.62481510	    -22.58942198	      7.98202033	     -0.48107382	    -13.56387298	     -1.16232961	     11.71692931
      3.45000000	     -1.56216001	     -7.68897242	     -2.55782528	     -1.01177988	      0.90644156	     -0.04216562	     -5.61619164	     10.05630720	     -5.31159835	    -16.62349081	     23.24300786	     -2.70534827	     33.94737115	    -10.15515250	     -8.49055724	    -23.84285494	      8.10005777	     -0.46667885	    -13.66314521	     -0.73387720	     11.64806242
      3.46000000	     -1.47621782	     -8.06295028	     -2.70814399	     -1.01820226	      0.90810563	     -0.04154665	     -5.44059445	     10.48466571	     -5.14299878	    -16.31377425	     22.66588666	     -2.74205388	     34.07769093	    -10.73123634	     -8.32703271	    -25.22171038	      8.18877416	     -0.48147012	    -13.75087423	     -0.41681112	     11.54209353
      3.47000000	     -1.37954369	     -8.31346963	     -2.80011541	     -1.02431460	      0.91000247	     -0.04114729	     -5.29052037	     10.78157703	     -5.01711817	    -15.99427075	     22.05225152	     -2.77439147	     34.13102439	    -11.14208077	     -8.11176472	    -26.69794173	      8.25332769	     -0.52162707	    -13.82543944	     -0.23198491	     11.35099177
      3.48000000	     -1.26362645	     -8.43785000	     -2.82806352	     -1.03012214	      0.91209317	     -0.04093332	     -5.19932992	     10.95386036	     -4.91983706	    -15.62088818	     21.42065484	     -2.82276229	     34.09210283	    -11.37852672	     -7.81872699	    -28.24770163	      8.31481455	     -0.58539064	    -13.89298405	     -0.18801779	     11.05317284
      3.49000000	     -1.11408703	     -8.43829953	     -2.79761698	     -1.03563656	      0.91434573	     -0.04090997	     -5.19538000	     10.99786023	     -4.88675588	    -15.17023383	     20.78736435	     -2.89524334	     33.94691273	    -11.44299928	     -7.44919301	    -29.86238536	      8.35964829	     -0.65537101	    -13.97086137	     -0.27763142	     10.68448756
      3.50000000	     -0.94553616	     -8.33793280	     -2.71378087	     -1.04091189	      0.91667221	     -0.04103970	     -5.25611580	     10.94389601	     -4.86775647	    -14.65654225	     20.17016716	     -2.99965957	     33.71628308	    -11.35145384	     -6.95547371	    -31.52648854	      8.43191037	     -0.73456318	    -14.05095763	     -0.47480568	     10.20863557
      3.51000000	     -0.76322422	     -8.15322778	     -2.59716999	     -1.04597737	      0.91901093	     -0.04131370	     -5.36476636	     10.79901089	     -4.89268365	    -14.10170841	     19.58078807	     -3.12329762	     33.41383258	    -11.13392080	     -6.37123359	    -33.24223546	      8.51078898	     -0.80473742	    -14.13466347	     -0.75535340	      9.66554130
      3.52000000	     -0.58009996	     -7.90973127	     -2.46618155	     -1.05086000	      0.92128930	     -0.04168437	     -5.48827439	     10.58774021	     -4.93854338	    -13.54527887	     19.03491177	     -3.25173441	     33.05925166	    -10.82930407	     -5.71556935	    -35.00613365	      8.60870604	     -0.85692238	    -14.20998034	     -1.09542860	      9.07581288
      3.53000000	     -0.40930766	     -7.63427878	     -2.34799136	     -1.05559233	      0.92344612	     -0.04212180	     -5.59484218	     10.33304327	     -4.99165305	    -13.02178839	     18.54016693	     -3.37566767	     32.67165881	    -10.48833548	     -5.04075030	    -36.81720708	      8.72932982	     -0.89036322	    -14.27038625	     -1.46249532	      8.46414847
      3.54000000	     -0.25764249	     -7.35440442	     -2.26429826	     -1.06019101	      0.92544104	     -0.04260072	     -5.66190438	     10.05976324	     -5.03635915	    -12.56183866	     18.09373636	     -3.49171292	     32.25959617	    -10.16140385	     -4.39610508	    -38.66895419	      8.87220720	     -0.91038674	    -14.31113239	     -1.82605663	      7.86083199
      3.55000000	     -0.13362151	     -7.09102236	     -2.23473638	     -1.06466964	      0.92724509	     -0.04310561	     -5.67462284	      9.78733886	     -5.05306633	    -12.17473770	     17.68806278	     -3.59838834	     31.82774190	     -9.88831731	     -3.82308169	    -40.54542367	      9.03888234	     -0.92484360	    -14.32384314	     -2.16254040	      7.29354404
      3.56000000	     -0.03746456	     -6.86246529	     -2.28164674	     -1.06903288	      0.92884968	     -0.04359106	     -5.62397539	      9.53241657	     -5.02594505	    -11.88009979	     17.32737677	     -3.69630715	     31.36990240	     -9.71748328	     -3.38274944	    -42.43031085	      9.22797882	     -0.94357021	    -14.30728529	     -2.45499534	      6.79026633
      3.57000000	      0.03735540	     -6.68971985	     -2.40846417	     -1.07329463	      0.93025888	     -0.04405429	     -5.51607003	      9.31765923	     -4.95057264	    -11.67644313	     16.99540587	     -3.79868733	     30.87413011	     -9.67968304	     -3.08979364	    -44.30334145	      9.44005130	     -0.98701976	    -14.27066064	     -2.68073379	      6.36809646
      3.58000000	      0.08279509	     -6.56719255	     -2.62777987	     -1.07744046	      0.93146642	     -0.04446200	     -5.34739569	      9.13791258	     -4.81563270	    -11.55508594	     16.70407374	     -3.88935488	     30.33341922	     -9.78856980	     -2.98856993	    -46.13579478	      9.67166273	     -1.05520918	    -14.19757544	     -2.84739327	      6.05000944
      3.59000000	      0.10176551	     -6.49956611	     -2.92529523	     -1.08149374	      0.93248811	     -0.04481763	     -5.13135000	      9.00591405	     -4.57442268	    -11.49380620	     16.43111922	     -4.00425324	     29.73768066	    -10.03761598	     -3.05297205	    -47.89588481	      9.91250960	     -1.22470444	    -14.09472864	     -2.95166599	      5.80525502
      3.60000000	      0.11197412	     -6.48382761	     -3.28371625	     -1.08541978	      0.93334810	     -0.04512123	     -4.88625443	      8.91740922	     -4.32421888	    -11.49478912	     16.18876521	     -4.08295106	     29.05882919	    -10.42629071	     -3.29771237	    -49.55813854	     10.17535548	     -1.39835468	    -13.97643383	     -2.99949555	      5.64438034
